<svg xmlns="http://www.w3.org/2000/svg" viewBox="0 0 512 512" role="img" aria-label="中古ゴルフクラブ相場サイト">
  <defs>
    <linearGradient id="background" x1="76" y1="44" x2="436" y2="468" gradientUnits="userSpaceOnUse">
      <stop stop-color="#141414"/>
      <stop offset="0.55" stop-color="#050505"/>
      <stop offset="1" stop-color="#000000"/>
    </linearGradient>
    <linearGradient id="gold" x1="128" y1="104" x2="408" y2="430" gradientUnits="userSpaceOnUse">
      <stop stop-color="#f5d27a"/>
      <stop offset="0.48" stop-color="#d2a045"/>
      <stop offset="1" stop-color="#a87420"/>
    </linearGradient>
    <filter id="shadow" x="-20%" y="-20%" width="140%" height="140%">
      <feDropShadow dx="0" dy="16" stdDeviation="18" flood-color="#000000" flood-opacity="0.32"/>
    </filter>
  </defs>
  <rect width="512" height="512" rx="104" fill="url(#background)"/>
  <rect x="28" y="28" width="456" height="456" rx="84" fill="none" stroke="#e1b85d" stroke-width="8" opacity="0.5"/>
  <path d="M116 381c92-42 170-113 239-215" fill="none" stroke="#e1b85d" stroke-width="22" stroke-linecap="round"/>
  <g filter="url(#shadow)">
    <path d="M347 150c24-39 73-51 111-29 24 14 34 40 22 62-22 42-78 62-133 45-19-6-30-18-30-33 0-13 11-29 30-45z" fill="url(#gold)"/>
    <path d="M355 171c24-18 55-27 82-25M347 202c32 12 71 5 101-17" fill="none" stroke="#5b3d0f" stroke-width="9" stroke-linecap="round" opacity="0.65"/>
    <path d="M329 207l38-45" fill="none" stroke="#e1b85d" stroke-width="18" stroke-linecap="round"/>
  </g>
  <path d="M105 401c48 32 123 28 174-9" fill="none" stroke="url(#gold)" stroke-width="30" stroke-linecap="round"/>
  <g filter="url(#shadow)">
    <path d="M165 122h143c14 0 27 7 35 18l66 90c11 15 11 36 0 51l-66 90c-8 11-21 18-35 18H165c-24 0-43-19-43-43V165c0-24 19-43 43-43z" fill="url(#gold)"/>
    <circle cx="318" cy="178" r="18" fill="#17231b" opacity="0.72"/>
    <path d="M214 193l42 54 42-54M256 247v58M210 246h92M220 276h72" fill="none" stroke="#050505" stroke-width="22" stroke-linecap="round" stroke-linejoin="round" opacity="0.78"/>
  </g>
  <g>
    <circle cx="378" cy="328" r="50" fill="#050505" stroke="#e1b85d" stroke-width="10"/>
    <circle cx="360" cy="312" r="5" fill="#e1b85d"/>
    <circle cx="384" cy="309" r="5" fill="#e1b85d"/>
    <circle cx="402" cy="326" r="5" fill="#e1b85d"/>
    <circle cx="374" cy="338" r="5" fill="#e1b85d"/>
    <circle cx="397" cy="351" r="5" fill="#e1b85d"/>
  </g>
  <rect x="63" y="408" width="386" height="62" rx="22" fill="#000000" opacity="0.92"/>
  <rect x="70" y="415" width="372" height="48" rx="17" fill="none" stroke="#e1b85d" stroke-width="3" opacity="0.85"/>
  <text x="256" y="449" fill="#e1b85d" font-family="-apple-system, BlinkMacSystemFont, 'Hiragino Sans', 'Yu Gothic', sans-serif" font-size="32" font-weight="800" text-anchor="middle" letter-spacing="1">ゴルフクラブ査定</text>
</svg>
